HIERARCHY
ROOT Hips
{
	OFFSET -14.64140 90.27770 -84.91600
	CHANNELS 6 Xposition Yposition Zposition Zrotation Xrotation Yrotation
	JOINT Spine
	{
		OFFSET 0.00000 13.20850 -1.60436
		CHANNELS 3 Zrotation Xrotation Yrotation
		JOINT Spine1
		{
			OFFSET 0.00000 8.61716 0.00000
			CHANNELS 3 Zrotation Xrotation Yrotation
			JOINT Spine2
			{
				OFFSET 0.00000 8.61717 0.00000
				CHANNELS 3 Zrotation Xrotation Yrotation
				JOINT Spine3
				{
					OFFSET 0.00000 8.61717 0.00000
					CHANNELS 3 Zrotation Xrotation Yrotation
					JOINT Neck
					{
						OFFSET 0.00000 11.07920 1.10792
						CHANNELS 3 Zrotation Xrotation Yrotation
						JOINT Neck1
						{
							OFFSET 0.00000 7.08032 0.00000
							CHANNELS 3 Zrotation Xrotation Yrotation
							JOINT Head
							{
								OFFSET 0.00000 7.08031 0.00000
								CHANNELS 3 Zrotation Xrotation Yrotation
								End site
								{
									OFFSET 0.00000 0.00000 0.00000
								}
							}
						}
					}
					JOINT RightShoulder
					{
						OFFSET -0.01000 7.91373 5.19711
						CHANNELS 3 Zrotation Xrotation Yrotation
						JOINT RightArm
						{
							OFFSET -18.41580 0.00000 0.00000
							CHANNELS 3 Zrotation Xrotation Yrotation
							JOINT RightForeArm
							{
								OFFSET -29.11090 0.00000 0.00000
								CHANNELS 3 Zrotation Xrotation Yrotation
								JOINT RightHand
								{
									OFFSET -24.65040 0.00000 0.00000
									CHANNELS 3 Zrotation Xrotation Yrotation
									JOINT RightHandThumb1
									{
										OFFSET -5.35114 -0.85590 3.97906
										CHANNELS 3 Zrotation Xrotation Yrotation
										JOINT RightHandThumb2
										{
											OFFSET -4.52789 0.00000 0.00000
											CHANNELS 3 Zrotation Xrotation Yrotation
											JOINT RightHandThumb3
											{
												OFFSET -2.46976 0.00000 0.00000
												CHANNELS 3 Zrotation Xrotation Yrotation
												End site
												{
													OFFSET 0.00000 0.00000 0.00000
												}
											}
										}
									}
									JOINT RightHandIndex1
									{
										OFFSET -14.26970 0.00000 2.88139
										CHANNELS 3 Zrotation Xrotation Yrotation
										JOINT RightHandIndex2
										{
											OFFSET -5.48836 0.00000 0.00000
											CHANNELS 3 Zrotation Xrotation Yrotation
											JOINT RightHandIndex3
											{
												OFFSET -3.01859 0.00000 0.00000
												CHANNELS 3 Zrotation Xrotation Yrotation
												End site
												{
													OFFSET 0.00000 0.00000 0.00000
												}
											}
										}
									}
									JOINT RightHandMiddle1
									{
										OFFSET -14.26970 0.00000 -0.09147
										CHANNELS 3 Zrotation Xrotation Yrotation
										JOINT RightHandMiddle2
										{
											OFFSET -6.17441 0.00000 0.00000
											CHANNELS 3 Zrotation Xrotation Yrotation
											JOINT RightHandMiddle3
											{
												OFFSET -3.56743 0.00000 0.00000
												CHANNELS 3 Zrotation Xrotation Yrotation
												End site
												{
													OFFSET 0.00000 0.00000 0.00000
												}
											}
										}
									}
									JOINT RightHandRing1
									{
										OFFSET -12.69180 0.00000 -3.06433
										CHANNELS 3 Zrotation Xrotation Yrotation
										JOINT RightHandRing2
										{
											OFFSET -5.62556 0.00000 0.00000
											CHANNELS 3 Zrotation Xrotation Yrotation
											JOINT RightHandRing3
											{
												OFFSET -3.56744 0.00000 0.00000
												CHANNELS 3 Zrotation Xrotation Yrotation
												End site
												{
													OFFSET 0.00000 0.00000 0.00000
												}
											}
										}
									}
									JOINT RightHandPinky1
									{
										OFFSET -11.11390 0.00000 -6.03719
										CHANNELS 3 Zrotation Xrotation Yrotation
										JOINT RightHandPinky2
										{
											OFFSET -4.52789 0.00000 0.00000
											CHANNELS 3 Zrotation Xrotation Yrotation
											JOINT RightHandPinky3
											{
												OFFSET -2.46976 0.00000 0.00000
												CHANNELS 3 Zrotation Xrotation Yrotation
												End site
												{
													OFFSET 0.00000 0.00000 0.00000
												}
											}
										}
									}
								}
							}
						}
					}
					JOINT LeftShoulder
					{
						OFFSET 0.01000 7.91373 5.19711
						CHANNELS 3 Zrotation Xrotation Yrotation
						JOINT LeftArm
						{
							OFFSET 18.41580 0.00000 0.00000
							CHANNELS 3 Zrotation Xrotation Yrotation
							JOINT LeftForeArm
							{
								OFFSET 29.11090 0.00000 0.00000
								CHANNELS 3 Zrotation Xrotation Yrotation
								JOINT LeftHand
								{
									OFFSET 24.65040 0.00000 0.00000
									CHANNELS 3 Zrotation Xrotation Yrotation
									JOINT LeftHandThumb1
									{
										OFFSET 5.35114 -0.85590 3.97906
										CHANNELS 3 Zrotation Xrotation Yrotation
										JOINT LeftHandThumb2
										{
											OFFSET 4.52789 0.00000 0.00000
											CHANNELS 3 Zrotation Xrotation Yrotation
											JOINT LeftHandThumb3
											{
												OFFSET 2.46977 0.00000 0.00000
												CHANNELS 3 Zrotation Xrotation Yrotation
												End site
												{
													OFFSET 0.00000 0.00000 0.00000
												}
											}
										}
									}
									JOINT LeftHandIndex1
									{
										OFFSET 14.26970 0.00000 2.88139
										CHANNELS 3 Zrotation Xrotation Yrotation
										JOINT LeftHandIndex2
										{
											OFFSET 5.48836 0.00000 0.00000
											CHANNELS 3 Zrotation Xrotation Yrotation
											JOINT LeftHandIndex3
											{
												OFFSET 3.01859 0.00000 0.00000
												CHANNELS 3 Zrotation Xrotation Yrotation
												End site
												{
													OFFSET 0.00000 0.00000 0.00000
												}
											}
										}
									}
									JOINT LeftHandMiddle1
									{
										OFFSET 14.26970 0.00000 -0.09147
										CHANNELS 3 Zrotation Xrotation Yrotation
										JOINT LeftHandMiddle2
										{
											OFFSET 6.17440 0.00000 0.00000
											CHANNELS 3 Zrotation Xrotation Yrotation
											JOINT LeftHandMiddle3
											{
												OFFSET 3.56744 0.00000 0.00000
												CHANNELS 3 Zrotation Xrotation Yrotation
												End site
												{
													OFFSET 0.00000 0.00000 0.00000
												}
											}
										}
									}
									JOINT LeftHandRing1
									{
										OFFSET 12.69180 0.00000 -3.06433
										CHANNELS 3 Zrotation Xrotation Yrotation
										JOINT LeftHandRing2
										{
											OFFSET 5.62556 0.00000 0.00000
											CHANNELS 3 Zrotation Xrotation Yrotation
											JOINT LeftHandRing3
											{
												OFFSET 3.56744 0.00000 0.00000
												CHANNELS 3 Zrotation Xrotation Yrotation
												End site
												{
													OFFSET 0.00000 0.00000 0.00000
												}
											}
										}
									}
									JOINT LeftHandPinky1
									{
										OFFSET 11.11390 0.00000 -6.03719
										CHANNELS 3 Zrotation Xrotation Yrotation
										JOINT LeftHandPinky2
										{
											OFFSET 4.52789 0.00000 0.00000
											CHANNELS 3 Zrotation Xrotation Yrotation
											JOINT LeftHandPinky3
											{
												OFFSET 2.46976 0.00000 0.00000
												CHANNELS 3 Zrotation Xrotation Yrotation
												End site
												{
													OFFSET 0.00000 0.00000 0.00000
												}
											}
										}
									}
								}
							}
						}
					}
					JOINT pCube4
					{
						OFFSET 0.00000 10.91090 1.10792
						CHANNELS 3 Zrotation Xrotation Yrotation
						End site
						{
							OFFSET 0.00000 0.00000 0.00000
						}
					}
				}
			}
		}
	}
	JOINT RightUpLeg
	{
		OFFSET -9.98441 0.00000 0.00000
		CHANNELS 3 Zrotation Xrotation Yrotation
		JOINT RightLeg
		{
			OFFSET 0.00000 -42.11790 0.00000
			CHANNELS 3 Zrotation Xrotation Yrotation
			JOINT RightFoot
			{
				OFFSET 0.00000 -45.00020 -0.00001
				CHANNELS 3 Zrotation Xrotation Yrotation
				JOINT RightForeFoot
				{
					OFFSET 0.00000 -3.74820 0.00000
					CHANNELS 3 Zrotation Xrotation Yrotation
					JOINT RightToeBase
					{
						OFFSET 0.00000 0.06325 14.43120
						CHANNELS 3 Zrotation Xrotation Yrotation
						End site
						{
							OFFSET 0.00000 0.00000 0.00000
						}
					}
				}
			}
		}
	}
	JOINT LeftUpLeg
	{
		OFFSET 9.98441 0.00000 0.00000
		CHANNELS 3 Zrotation Xrotation Yrotation
		JOINT LeftLeg
		{
			OFFSET 0.00000 -42.11800 0.00000
			CHANNELS 3 Zrotation Xrotation Yrotation
			JOINT LeftFoot
			{
				OFFSET 0.00000 -45.00070 0.00000
				CHANNELS 3 Zrotation Xrotation Yrotation
				JOINT LeftForeFoot
				{
					OFFSET 0.00000 -3.74824 0.00000
					CHANNELS 3 Zrotation Xrotation Yrotation
					JOINT LeftToeBase
					{
						OFFSET 0.00000 0.06325 14.43110
						CHANNELS 3 Zrotation Xrotation Yrotation
						End site
						{
							OFFSET 0.00000 0.00000 0.00000
						}
					}
				}
			}
		}
	}
}
MOTION
Frames: 4
Frame Time: 0.050000
-0.010476183209103818 0.0481498011961225 0.0003037147503296754 -0.046535877843516635 -0.009361629547470903 0.0018715582120197025 -2.238254388384227 1.0116659983221568 -0.8481384356750571 -1.1354893640910035 3.90825157225822 0.3691650554453944 -1.1180907903926967 -1.9162145631857759 -1.9416981239823785 -0.025004685455549402 0.5189219709939147 -0.9041355540879067 -1.045948464835327 13.442776767416593 2.643494026909497 0.010763593643290693 -0.16580663088822112 5.65771406898776 -0.6338747663071748 -15.429571331884198 0.4608349734071308 -4.982993669716041 1.7103065335601844 -16.005402304507555 73.00705309264981 16.5865902479647 -4.647455906982598 4.899503342514482 -1.9787256609357604 43.03089044860869 20.20336492856723 -0.18358656703082415 -2.530537270465491 4.563011274563308 -0.10263287251054126 -1.6126001941207357 -0.005328556994692402 0.04898876505033398 -56.23176974865437 -0.01218290888886572 -0.0315146406154388 -56.27536439669388 -38.802088024771344 0.02568414953084107 0.035087140252463456 -0.008894179103412834 0.0031069486985857812 -0.009569041987527586 0.007611104641265454 0.027594399791222534 0.01873303405149647 -36.68806166999621 0.0473267723131631 0.031400296998716735 -0.018484734736332536 0.00996348287009025 -0.015514988383776318 -0.022251796175977553 0.009665535064127626 0.04037151188464693 -19.76918907717367 -0.01694778060570223 0.0035228228480590233 0.012671673847917368 0.02407493813838162 0.04830449211177299 0.004887642696750756 -0.005354004716610073 -0.007132696693190415 24.08481253367768 0.000614090023424677 -0.005847867038711402 28.828047409913413 -0.0324600880766263 -0.012325862084213131 28.89115441158313 0.03503806941038252 0.03984550340050985 8.229614834708645 1.7049030944463741 14.147881568624323 -69.14913838257296 18.457508373002092 -10.885215270974488 -1.6445148999304924 -17.68145201803617 -61.91070205219192 -6.529990483819957 -0.5383093225769499 1.4854300651191594 -0.46877326129677127 0.05415725814376024 -8.171304529140954 0.004145584257299125 -0.04055650553774462 44.59875294206088 -0.016643862583039726 0.005122999973633055 44.583702365002246 12.48640948567489 0.0031566605147366872 -0.00410383407952557 0.03031055912282899 -0.007782852924374647 -0.002544663836299527 0.02990734960693798 -0.022464231873282153 0.008514011233802268 11.07111416154935 0.0027208650210141087 0.03974044181370758 0.02914427599986616 -0.0299646909168632 -0.048782207195020064 0.024265809036230112 -0.00584402708639556 0.03314479372877659 4.79232740272396 -0.012640040360204734 0.045497993490662664 -0.016758353360094576 0.03165315521987621 0.02821264841691267 0.00019270237735328122 -0.04372120148424748 0.011165397130832358 -5.601632361920722 -0.010222490343659098 0.030416244402031563 -6.755305593267812 -0.02406697688407229 -0.003492827164570584 -6.712021794284492 0.02695634407920446 -0.013428970404978868 0.03269186288349494 0.0031575357354808476 0.02659168472453571 8.018521255966284 3.465269720082202 -19.204879516103137 0.029320307294709698 10.414277773703953 0.03481478700851988 -5.670162286973945 -15.686361250871869 3.148893360406865 -0.003124465240545443 0.028066508488533416 -0.015928478244964937 0.01563163391201047 4.730362178401494 -0.013351240420869005 12.460452822591122 -8.272632752689855 6.917395125173385 -0.022319121068037788 46.384431514146435 -0.0044657366984226735 -4.326678840356314 -14.786053784195673 -3.8545680917980856 0.012341130236574854 0.020533970914185264 -0.0357848384404559 0.03067324658310326 -10.759078899296002 -0.028463119542435605 
0.031688581417630195 -0.01528611551409307 0.02546443552209974 -0.023748148697748578 0.02760680200599211 -0.026281859366718986 -2.1930792891326782 1.0417990305976514 -0.817458977610899 -1.19399565441411 3.9559589928302894 0.3542350013457402 -1.1438811111212681 -1.915814288922929 -1.801626165418793 -0.02339100841855147 0.514179430289401 -0.9323278470119899 -1.1640106959267522 13.270795875882444 2.8439190316917413 0.04217437352261642 -0.2802314756707988 6.078675396316706 -0.7728126858958771 -15.509520383628885 0.5409682652485347 -4.728697286611022 1.6488617628097317 -16.102055144206183 73.06691775973827 17.233504817764185 -5.626328951492563 5.292580603643703 -2.09291077636967 42.36007417021424 20.205627541536323 -0.07298496539536714 -2.699320207780689 4.514263451006153 -0.12995834491954808 -1.5799411788340374 -0.0499125348480677 -0.012660738954529632 -56.25184627105698 -0.013801527260152928 0.049263176407801014 -56.26056624877743 -38.75517254996811 -0.035596663172111874 0.01596181512478804 -0.0012261578029188766 -0.014716521523645571 -0.033610194372650185 -0.009600589966581294 -0.019661419976496695 -0.002306084419783228 -36.69087627079126 0.029371414305904522 0.027960708026417654 -0.031050613324888707 -0.01394865637674851 -0.024805287628391324 0.0005540957569348082 0.03688466088053064 0.04914707235863065 -19.798765375874698 0.04214572921971467 -0.023754405338176583 0.04787915586566395 -0.002288081512851531 -0.017818684273871746 -0.04790494540423694 -0.02158536325399877 0.02620102092284445 24.049559510891267 0.04503173782075946 0.02532391433148288 28.90093347051609 0.01956816361877689 0.010682106261182264 28.856634239792125 0.018907528889583244 0.0024388685843249685 7.838355278326972 1.7070089276457685 14.379952456987878 -70.13392303954691 19.38161309519337 -8.789569961196031 -2.112851620700634 -17.33444039361695 -61.846621269407386 -7.06884270097339 -0.7142089160385752 1.5834136956322291 -0.5114679200453793 0.05542611951059162 -8.154739387441316 0.03872451086528562 -0.00471162958839078 44.601022462729915 0.03978583271055696 0.02077268648024718 44.52664022024267 12.477266389797792 0.03848955105969591 0.04532117704194389 -0.026971765925085246 -0.04264024023890098 0.0013827704516055001 0.027234999480913125 0.023667308706222433 0.001832990685300402 11.05741182950576 0.02194083238201717 -0.011769775117567913 0.036941525453743684 0.005513301842497133 -0.020241307025808022 -0.005775329693584493 -0.027542274243949852 -0.03711847560425772 4.728626439090608 -0.030445203791823007 0.011556252503457046 -0.02702226763651637 0.030752211256902626 0.04455062938117088 -0.030502685978627576 0.03385523002320891 -0.03853736982983048 -5.586345583928755 0.03891646582153375 0.016692728410564347 -6.708248858167035 0.018078373331098598 -0.04174220869388836 -6.717025368215641 0.001634137901615264 8.62033170293883e-05 -0.010145826596600925 0.037814861992042155 -0.0033728399384596354 8.037821093765581 3.5089225657235827 -19.209665108428265 -0.0185630652928442 10.38614582273068 -0.03347499339043494 -5.615161388978127 -15.61230262404265 3.2325104867419965 0.02010170024271247 -0.013868935168836577 0.024765718828626385 -0.014810060370323494 4.684710559080895 0.013372308560351685 12.455373153533362 -8.252171913820233 6.868634327315768 -0.02249382056784788 46.35847748378387 -0.015258360369799304 -4.373766757545123 -14.796215931473945 -3.8714735287542936 0.03216061888166939 -0.009204279243099696 0.03819882569786004 0.036190510851660425 -10.756693754020569 0.019352381537167493 
0.005504214035625421 -0.0027183184063922904 -0.03946573606275076 0.03875175127670505 -0.042133167131626945 -0.007389231978018624 -2.164075145346745 1.1052105024857204 -0.8884584403425184 -1.148271927176383 3.9461759115873196 0.3491463913331173 -1.1654786179148928 -1.8778758226916412 -1.819192708324782 -0.03278416427766803 0.5468882546510371 -0.8772542267688304 -1.2329624159807862 13.18995370400744 3.116644112165763 0.008913515611720026 -0.32743155350116787 6.503663903247387 -0.8934006927818605 -15.557680403109629 0.5471973192319647 -4.4924795543810605 1.612493848698439 -16.116627564726485 73.09166204022551 17.95403377825544 -6.326243878374167 4.943305596059914 -2.141508832890822 41.76507971220932 20.12420726737663 -0.07205962499666468 -2.7754805644797265 4.545426218235513 -0.14609212155391604 -1.5601642362439716 -0.038375042089799624 -0.0011264527791482583 -56.225377754508855 -0.041939399578043206 -0.011271214762599263 -56.2314435765434 -38.778639760835325 -0.02921351418081577 0.023761502022008975 -9.522591743916194e-05 0.04851019644493427 -0.02315081333686334 -0.019513762743766067 -0.025446793195734837 0.029318225838308162 -36.668401629523686 -0.0370780998559462 -0.0043804031033032554 0.0030469742428624732 -0.0051490850461450785 0.011554199533958165 -0.040444836534315 -0.040981505399373175 0.028440891319386874 -19.78596746784197 0.03700405143277721 -0.040793731805411355 0.006443094497759175 0.0012539872351918207 -0.026346973414307875 0.03433484117283955 0.0410507103012384 0.04420340044012696 24.008585972455588 0.014980821907248764 0.022621185270994177 28.879924151727238 -0.036115128318920234 0.0043764539221683085 28.91386885575052 0.010291908576729262 -0.02073430461881195 7.781315893459236 1.6622190285452567 14.421605169424842 -70.40217626720819 19.71154018463056 -8.331808244922787 -0.08009919652101263 -17.98711100110754 -64.33430891481743 -6.845547763004173 -1.05679523432248 1.6413230192986967 -0.4783753983639688 0.056399670737350235 -8.075924694918744 -0.0006517825150723144 -0.021451765632739542 44.52141685627529 0.03726656830927503 -0.0351101342762798 44.56823820184647 12.445072862211859 0.021898476367823928 0.02848541290221895 -0.01362757135916193 -0.0340524947182374 0.0374145103796105 0.030859122004346217 -0.008490064062676692 -0.0030544330283879613 11.15283728045827 0.008256758689624229 -0.03626869682395664 -0.017801383586262338 0.01289639884505658 0.024648162709247044 0.04846502186590989 0.03689880745996899 0.022127976714819947 4.727403858870938 0.02757726815744587 -0.022700262171100365 -0.03634092454627389 0.04748094732910463 -0.0005938360539259199 -0.04955197482984303 -0.029020082590358803 0.04727111096793397 -5.592247784460226 -0.010357737065647013 -0.008614510883228964 -6.7495310382567455 0.031560876410484655 0.022650959544576715 -6.708439702625695 -0.002677058828271851 0.01580106243753759 -0.008668610525821336 -0.010410996592387253 -0.012678851214738593 8.019912333496048 3.5366376242892614 -19.23185441787327 -0.029522534140992117 10.415240534025875 -0.03249340447082316 -5.590502041061973 -15.695117385130876 3.179504028645672 -0.02438545096842166 0.026459822237849102 0.024161872846179853 0.04233392737036457 4.702820282303433 -0.027743138996975305 12.48477329658496 -8.249173290176804 6.885503269465395 -0.027588354140242653 46.380785956560295 -0.019475255498263802 -4.351644351149066 -14.776665453531175 -3.805184324366621 0.004214736827021619 -0.020870218703523156 0.025432462375940067 0.019541715907697384 -10.768103200975894 0.011094158228598923 
-0.03106311913746873 -0.012186225351677894 -0.026779569441278173 0.0004700290153830394 0.007294719032156451 0.00020502177755144657 -2.1517774665132876 1.054574436820756 -0.8294631949687338 -1.152448923083189 3.976603301350641 0.38983810632956467 -1.0749880780408438 -1.8232086851208311 -1.824832926441311 -0.004266969533803365 0.5609343036049615 -0.9436442953140936 -1.268281865852256 13.107643930708575 3.1345994709728746 -0.11437520610555589 -0.29964701223179696 6.551366335873515 -0.9057424913576952 -15.603716954570165 0.5413498385102022 -4.382818614366288 1.4942546493338202 -16.11896991214643 72.90329686711853 18.114071750800132 -6.395546124480801 5.288068919652232 -1.9520975227099646 42.25309081836295 20.04472752827483 -0.0802480145048977 -2.9661797516929673 4.52654174926143 -0.08301590247519115 -1.5595125999018844 -0.03787831036836766 -0.046561773330482226 -56.26191098880337 -0.02232391512751212 -0.03181765789230844 -56.215150804733014 -38.745106295748094 0.046451516023217725 -0.038354854243980024 0.017112271472121212 0.015513670452072201 0.043866021718924765 0.0019485105384387078 0.017631801233417253 0.037695082908869734 -36.66887129780613 0.04503099734386571 0.015738304325330296 -0.04242868874528029 -0.048823053806633716 -0.023281157145207166 0.00965791308032513 -0.02677274850221135 -0.02458716384872937 -19.755273502218312 0.039809623239263896 0.0008312309019288442 -0.010758836389407944 0.021954457226465572 -0.03387294599420633 0.027194574424968223 0.01759561160786272 0.02979518702929382 24.060233784242037 0.04875550605585944 0.011622583328206447 28.888928171955204 0.002802841826427072 -0.04842686859151209 28.87938500119477 0.038054262436075986 0.008902480783099588 7.950666534733653 1.6700371979605408 14.378295853864183 -70.07992700272524 19.571056118609114 -9.009919979412798 0.9292657421012802 -18.3309461406604 -67.48549639712434 -6.279269752870461 -1.240545321561119 1.467911486955729 -0.4314847000182162 0.09876120688385281 -8.138550284414366 0.033474625670881775 -0.04979587163748122 44.52571083211199 -0.03128719570099213 -0.031069942278889037 44.53826618665147 12.504371903270053 -0.020440942192042046 -0.007078418049020928 0.029820451745816923 0.00840453234668308 0.0318544695507721 0.025190783843452618 0.0030279496955976652 -0.03740846107292851 11.138734129681268 0.00756757677080959 0.04365344560948239 0.0108483992857118 -0.001587213810717989 0.006599798269289851 -0.023644429563641448 -0.04803595476764591 0.027724227000830704 4.757226412028857 -0.04726997205424404 0.020337607753226458 0.008427072514037135 -0.03617743359115365 -0.02434382765321415 0.0038967419186744594 -0.015333669168535834 -0.023691261576205963 -5.627960255004727 -0.022861798953920077 -0.031798236397322585 -6.746355403456591 0.008522481634064686 -0.04705247909940415 -6.688947164360014 0.01199943889422884 -0.012407839626909542 -0.037330441171980595 -0.03923331360151176 -0.037362223019133466 8.00408476614608 3.496288682563822 -19.24612312275332 0.0012286873320693117 10.37118750174411 -0.026890201721424176 -5.573501442590972 -15.615841068435802 3.148052341218509 0.0002854144643345666 -0.010308647192648849 -0.0016573181168286458 -0.011217215283146714 4.6927135790391885 0.008957662534581926 12.415891939323792 -8.251364036324595 6.902813665996723 0.011508858539952342 46.37947183970618 0.02001922277929714 -4.286757113199841 -14.795275348992497 -3.828149268331657 -0.003327241485205006 -0.0266631684226417 -0.04190105596845618 -0.008416547459321523 -10.729375959487989 -0.04738633780450967 
